<svg width="480" height="480" xmlns="http://www.w3.org/2000/svg" xmlns:svg="http://www.w3.org/2000/svg">
 <!-- Created with SVG-edit - https://github.com/SVG-Edit/svgedit-->
 <g class="layer">
  <title>Layer 1</title>
  <rect stroke="#000000" id="svg_1" height="448.96004" width="351.79015" y="13.61864" x="70.40054" stroke-width="5" fill="#000000"/>
  <rect stroke="#e5e5e5" id="svg_17" height="67.88422" width="55.81483" y="389.32419" x="90.31132" stroke-linecap="null" stroke-linejoin="null" stroke-dasharray="null" stroke-width="5" fill="#003f7f"/>
  <rect stroke="#e5e5e5" id="svg_3" height="23.88235" width="29" y="31.55882" x="373" stroke-width="5" fill="#7f7f00"/>
  <rect stroke="#e5e5e5" id="svg_4" height="23.88235" width="29" y="181.55882" x="318.5" stroke-width="5" fill="#007f00"/>
  <rect stroke="#e5e5e5" id="svg_2" height="23.88235" width="29" y="31.55882" x="318.5" stroke-width="5" fill="#7f0000"/>
  <rect stroke="#e5e5e5" id="svg_7" height="23.88235" width="29" y="181.55882" x="373" stroke-width="5" fill="#7f7f00"/>
  <rect stroke="#e5e5e5" id="svg_6" height="23.88235" width="29" y="81.55882" x="318.5" stroke-width="5" fill="#007f00"/>
  <rect stroke="#e5e5e5" id="svg_5" height="23.88235" width="29" y="81.55882" x="373" stroke-width="5" fill="#7f0000"/>
  <rect stroke="#e5e5e5" id="svg_10" height="23.88235" width="29" y="132.05882" x="318.5" stroke-width="5" fill="#7f7f00"/>
  <rect stroke="#e5e5e5" id="svg_9" height="23.88235" width="29" y="132.05882" x="373" stroke-width="5" fill="#007f00"/>
  <rect stroke="#e5e5e5" id="svg_8" height="23.88235" width="29" y="227.68382" x="373" stroke-width="5" fill="#7f0000"/>
  <rect stroke="#e5e5e5" id="svg_13" height="23.88235" width="29" y="227.68382" x="318.5" stroke-width="5" fill="#007f00"/>
  <rect stroke="#e5e5e5" id="svg_12" height="23.88235" width="29" y="274.55881" x="320.5" stroke-width="5" fill="#7f7f00"/>
  <rect stroke="#e5e5e5" id="svg_11" height="23.88235" width="29" y="274.55881" x="375" stroke-width="5" fill="#7f0000"/>
  <rect stroke="#e5e5e5" id="svg_14" height="86.61562" width="81.26808" y="226.52909" x="163.22634" stroke-linecap="null" stroke-linejoin="null" stroke-dasharray="null" stroke-width="5" fill="#999999"/>
  <rect stroke="#e5e5e5" id="svg_18" height="67.88422" width="55.81483" y="388.28011" x="176.53704" stroke-linecap="null" stroke-linejoin="null" stroke-dasharray="null" stroke-width="5" fill="#003f7f"/>
  <rect stroke="#e5e5e5" id="svg_19" height="67.88422" width="55.81483" y="388.2801" x="252.98147" stroke-linecap="null" stroke-linejoin="null" stroke-dasharray="null" stroke-width="5" fill="#003f7f"/>
 </g>
</svg>